<?xml version="1.0" encoding="UTF-8"?>
<svg id="Layer_1" xmlns="http://www.w3.org/2000/svg" xmlns:xlink="http://www.w3.org/1999/xlink" version="1.1" viewBox="0 0 275.21 122.64">
  <!-- Generator: Adobe Illustrator 30.1.0, SVG Export Plug-In . SVG Version: 2.1.1 Build 136)  -->
  <defs>
    <style>
      .st0 {
        fill: #e85d8a;
      }

      .st1 {
        font-family: CourierNewPS-BoldMT, 'Courier New';
        font-size: 11px;
        letter-spacing: .27em;
        opacity: .85;
      }

      .st1, .st2 {
        fill: #1abf00;
      }

      .st1, .st2, .st3 {
        font-weight: 700;
      }

      .st1, .st3, .st4 {
        isolation: isolate;
      }

      .st5 {
        fill: #8de85d;
      }

      .st6 {
        filter: url(#glow);
        opacity: .75;
      }

      .st7 {
        filter: url(#glow1);
        opacity: .6;
      }

      .st8 {
        fill: #5dbde8;
      }

      .st9 {
        fill: #b05de8;
      }

      .st2 {
        filter: url(#strongGlow);
        font-size: 24px;
        letter-spacing: .22em;
      }

      .st2, .st3 {
        font-family: Georgia-Bold, Georgia;
      }

      .st3 {
        fill: #dd1414;
        font-size: 12px;
        letter-spacing: .21em;
        opacity: .65;
      }

      .st10 {
        stroke: #5dbde8;
      }

      .st10, .st4, .st11 {
        fill: none;
      }

      .st10, .st11 {
        stroke-linecap: round;
        stroke-width: 2.5px;
      }

      .st4 {
        opacity: .45;
        stroke: #fff;
        stroke-width: 1.2px;
      }

      .st12 {
        fill: #e8b85d;
      }

      .st11 {
        stroke: #e85d8a;
      }
    </style>
    <filter id="glow" x="-50%" y="-50%" width="200%" height="200%">
      <feGaussianBlur result="blur" stdDeviation="3"/>
      <feMerge>
        <feMergeNode in="blur"/>
        <feMergeNode in="SourceGraphic"/>
      </feMerge>
    </filter>
    <filter id="glow1" data-name="glow" x="-50%" y="-50%" width="200%" height="200%">
      <feGaussianBlur result="blur" stdDeviation="3"/>
      <feMerge>
        <feMergeNode in="blur"/>
        <feMergeNode in="SourceGraphic"/>
      </feMerge>
    </filter>
    <filter id="strongGlow">
      <feGaussianBlur result="blur" stdDeviation="4"/>
      <feMerge>
        <feMergeNode in="blur"/>
        <feMergeNode in="SourceGraphic"/>
      </feMerge>
    </filter>
  </defs>
  <g class="st6">
    <path class="st11" d="M130.73,19c10-7.33,20-7.33,30,0s20,7.33,30,0,20-7.33,30,0,20,7.33,30,0"/>
    <path class="st10" d="M130.73,33c10,7.33,20,7.33,30,0s20-7.33,30,0,20,7.33,30,0,20-7.33,30,0"/>
    <line class="st4" x1="145.73" y1="11" x2="145.73" y2="41"/>
    <line class="st4" x1="160.73" y1="19" x2="160.73" y2="33"/>
    <line class="st4" x1="190.73" y1="19" x2="190.73" y2="33"/>
    <line class="st4" x1="220.73" y1="19" x2="220.73" y2="33"/>
    <line class="st4" x1="235.73" y1="11" x2="235.73" y2="41"/>
    <line class="st4" x1="175.73" y1="25" x2="175.73" y2="26"/>
    <line class="st4" x1="205.73" y1="25" x2="205.73" y2="26"/>
  </g>
  <g class="st7">
    <circle class="st0" cx="28.73" cy="16" r="3"/>
    <circle class="st0" cx="36.73" cy="8" r="2.5"/>
    <circle class="st0" cx="44.73" cy="21" r="3"/>
    <circle class="st0" cx="32.73" cy="27" r="2"/>
    <circle class="st0" cx="40.73" cy="2" r="2"/>
    <circle class="st8" cx="58.73" cy="13" r="3"/>
    <circle class="st8" cx="66.73" cy="5" r="2.5"/>
    <circle class="st8" cx="70.73" cy="19" r="2"/>
    <circle class="st8" cx="62.73" cy="23" r="2.5"/>
    <circle class="st5" cx="48.73" cy="39" r="3"/>
    <circle class="st5" cx="56.73" cy="33" r="2"/>
    <circle class="st5" cx="40.73" cy="35" r="2.5"/>
    <circle class="st5" cx="60.73" cy="43" r="2"/>
    <circle class="st12" cx="78.73" cy="27" r="3"/>
    <circle class="st12" cx="84.73" cy="19" r="2"/>
    <circle class="st12" cx="74.73" cy="36" r="2.5"/>
    <circle class="st9" cx="20.73" cy="33" r="2.5"/>
    <circle class="st9" cx="26.73" cy="41" r="2"/>
    <circle class="st9" cx="16.73" cy="23" r="2"/>
  </g>
  <text class="st2" transform="translate(68.73 72.94)"><tspan x="0" y="0">YU LAB</tspan></text>
  <text class="st1" transform="translate(0 94.13)"><tspan x="0" y="0">COMPUTATIONAL CANCER GENOMICS</tspan></text>
  <text class="st3" transform="translate(58.73 119.01)"><tspan x="0" y="0">Temple University</tspan></text>
</svg>